<svg xmlns="http://www.w3.org/2000/svg" width="512" height="512" viewBox="0 0 512 512"><path d="M220.542 344.382c0 6.903-5.598 12.5-12.5 12.5-6.904 0-12.5-5.597-12.5-12.5v-56.3c0-6.903 5.596-12.5 12.5-12.5 6.902 0 12.5 5.597 12.5 12.5v56.3zm49 0c0 6.903-5.598 12.5-12.5 12.5-6.904 0-12.5-5.597-12.5-12.5v-56.3c0-6.903 5.596-12.5 12.5-12.5 6.902 0 12.5 5.597 12.5 12.5v56.3zm48.916 0c0 6.903-5.596 12.5-12.5 12.5-6.902 0-12.5-5.597-12.5-12.5v-56.3c0-6.903 5.598-12.5 12.5-12.5 6.904 0 12.5 5.597 12.5 12.5v56.3zm-191.706-155.237l92.123-92.123c6.834-6.834 17.916-6.834 24.75 0 6.834 6.835 6.834 17.915 0 24.749l-67.375 67.374h-49.498zm208.998 0h49.498l-92.124-92.123c-6.834-6.834-17.914-6.834-24.748 0-6.835 6.835-6.835 17.915 0 24.749l67.374 67.374zm55.739 64.667l-61.501 126.291h-147.687l-61.754-126.291h270.942m70.511-40h-412v40h11.041c9.166 0 17.533 5.222 21.561 13.457l74.732 152.834h197.666l74.409-152.799c4.02-8.254 12.396-13.492 21.577-13.492h11.014v-40z"/></svg>