<svg xmlns="http://www.w3.org/2000/svg" width="512" height="512" viewBox="0 0 512 512"><path d="M256 141.173c-50.447-31.404-127.301-44.056-206-46.457v283.334c67.583 2.062 133.805 11.684 183.111 34.248 14.539 6.653 31.254 6.645 45.794-.008 49.304-22.56 115.52-32.179 183.095-34.24v-283.334c-78.699 2.401-155.555 15.053-206 46.457zm-166-4.161c47.503 3.985 105.513 13.64 146 38.827v194.237c-39.319-15.601-88.158-25.639-146-29.986v-203.078zm332 203.078c-57.842 4.348-106.682 14.386-146 29.986v-194.237c40.486-25.188 98.496-34.842 146-38.827v203.078z"/></svg>