<svg xmlns="http://www.w3.org/2000/svg" width="512" height="512" viewBox="0 0 512 512"><path d="M308.517 435.887c-14.418 24.971-46.35 33.527-71.321 19.109s-33.527-46.348-19.11-71.319l90.431 52.21zm103.364-19.855l-18.975 32.866-316.259-182.592 18.976-32.865c91.482 19.662 130.307-145.533 228.581-145.285 13.561.033 26.116-7.193 32.876-18.95l.034-.058c10.57-18.311 33.982-24.583 52.293-14.012 18.309 10.571 24.582 33.982 14.012 52.292l-.033.058c-6.793 11.72-6.773 26.234.026 37.949 49.353 84.982-74.299 201.199-11.531 270.597zm-73.859-290.733c-71.169-1.549-128.027 134.076-176.778 140.728l33.739 19.479c52.286-29.025 91.557-141.894 143.039-160.207zm65.695-29.245c4.281-7.417 1.731-16.934-5.687-21.217-7.415-4.28-16.934-1.731-21.216 5.686-4.281 7.416-1.731 16.934 5.686 21.217 7.417 4.281 16.935 1.73 21.217-5.686z"/></svg>