<svg xmlns="http://www.w3.org/2000/svg" width="512" height="512" viewBox="0 0 512 512"><path d="M256 50c-113.771 0-206 92.229-206 206s92.229 206 206 206 206-92.229 206-206-92.229-206-206-206zm-13 36.737c4.386-.334 8.75-.503 13-.503s8.614.169 13 .503v53.474c-4.315-.479-8.678-.722-13-.722-4.322 0-8.685.243-13 .722v-53.474zm-98.961 136.945l-49.428-20.48c2.687-8.215 6.033-16.277 9.965-24.015l49.419 20.476c-4.208 7.607-7.549 15.667-9.956 24.019zm20.901-40.358l-37.816-37.816c5.641-6.572 11.812-12.744 18.384-18.384l37.816 37.816c-6.789 5.425-12.959 11.595-18.384 18.384zm13.62-78.425c7.713-3.96 15.761-7.339 23.974-10.063l20.684 49.339c-8.337 2.44-16.383 5.816-23.975 10.059l-20.683-49.335zm77.44 245.652c-23.315 0-42.217-18.901-42.217-42.217 0-15.912 8.807-29.763 21.809-36.958l20.408-95.654 20.409 95.654c13.002 7.195 21.809 21.046 21.809 36.958-.001 23.315-18.903 42.217-42.218 42.217zm32.336-206.507l20.488-49.424c8.212 2.688 16.273 6.035 24.012 9.969l-20.483 49.416c-7.608-4.211-15.666-7.553-24.017-9.961zm40.339 20.895l37.816-37.815c6.571 5.641 12.744 11.813 18.385 18.384l-37.816 37.816c-5.426-6.789-11.596-12.959-18.385-18.385zm38.773 56.992c-2.533-8.294-6.004-16.3-10.341-23.854l49.102-21.251c4.036 7.646 7.505 15.656 10.331 23.859l-49.092 21.246z"/></svg>