<svg xmlns="http://www.w3.org/2000/svg" width="512" height="512" viewBox="0 0 512 512"><path d="M390.993 278.98c-39.029 0-70.668 31.639-70.668 70.668 0 39.028 31.639 70.669 70.668 70.669s70.67-31.641 70.67-70.669c0-39.029-31.641-70.668-70.67-70.668zm8.67 107.152v-19.104h-44.621v-32.702h44.621v-19.104l35.516 35.454-35.516 35.456zm-242.076-197.201h-49.498l92.123-92.123c6.834-6.834 17.916-6.834 24.75 0 6.834 6.835 6.834 17.915 0 24.749l-67.375 67.374zm92.127-67.374c-6.836-6.834-6.836-17.914 0-24.749 6.834-6.834 17.914-6.834 24.748 0l92.123 92.123h-49.498l-67.373-67.374zm72.06 298.333h-164.103l-74.733-152.834c-4.027-8.235-12.395-13.457-21.561-13.457h-11.04v-40h372v40h-301.453l61.754 126.291h114.434c4.937 15.296 13.511 28.969 24.702 40z"/></svg>