<svg xmlns="http://www.w3.org/2000/svg" width="512" height="512" viewBox="0 0 512 512"><path d="M397.389 118.132c0 10.035-8.135 18.17-18.17 18.17s-18.171-8.135-18.171-18.17v-45.729c0-10.035 8.136-18.17 18.171-18.17s18.17 8.135 18.17 18.17v45.729zm-245.5-45.811c0-10.035-8.136-18.172-18.17-18.172-10.036 0-18.171 8.137-18.171 18.172v45.727c0 10.035 8.135 18.172 18.171 18.172 10.034 0 18.17-8.137 18.17-18.172v-45.727zm267.463 26.53v18.617c0 22.129-18.004 40.133-40.133 40.133-22.13 0-40.134-18.004-40.134-40.133v-18.617h-165.233v18.533c0 22.131-18.004 40.135-40.133 40.135-22.13 0-40.134-18.004-40.134-40.135v-18.533h-43.585v359h412v-359h-42.648zm2.648 319h-332v-222.471h332v222.471zm-181.115-30.758c42.286-75.831 71.652-114.805 111.748-149.797l-5.213-11.987c-48.62 30.251-74.777 53.042-114.364 97.967-21.056-15.011-32.938-21.909-51.673-30.974l-16.016 14.807c32.031 29.688 49.438 49.269 75.518 79.984z"/></svg>