<svg xmlns="http://www.w3.org/2000/svg" width="512" height="512" viewBox="0 0 512 512"><path d="M326.358 223.478l-110.531 22.995-.113 83.63c-21.715-4.287-44.249 15-37.836 33.169 8.479 24.025 56.258 16.789 56.294-15.615.015-13.348-.011-44.89-.018-66.768l73.742-18.387v56.076c-21.717-4.286-44.248 15.003-37.837 33.17 8.479 24.027 56.258 16.791 56.295-15.615.012-11.182.004-112.655.004-112.655zm-28.54-133.478v85.75h85.864v246.25h-255.365v-332h169.501m25-40h-234.501v412h335.365v-311.25l-100.864-100.75z"/></svg>