<svg xmlns="http://www.w3.org/2000/svg" width="512" height="512" viewBox="0 0 512 512"><path d="M286.53 325.487l-45.314 45.313h-43.874l.001 43.873-45.745-.002v41.345h-101.598v-70.458l145.737-145.737c16.437 39.175 48.977 70.885 90.793 85.666zm139.116-233.149c48.473 48.474 48.471 127.064-.001 175.536-48.475 48.476-127.062 48.476-175.537.001-48.473-48.472-48.475-127.062 0-175.537 48.472-48.473 127.065-48.473 175.538 0zm-24.914 24.827c-12.024-12.021-31.517-12.022-43.538 0-12.022 12.023-12.022 31.516 0 43.538 12.021 12.022 31.513 12.021 43.536-.001 12.024-12.023 12.022-31.515.002-43.537z"/></svg>