<svg xmlns="http://www.w3.org/2000/svg" width="512" height="512" viewBox="0 0 512 512"><path d="M256 65.353c-108.81 0-206 73.248-206 173.431 0 35.533 12.684 70.421 35.135 97.493.948 31.723-17.552 77.223-34.217 110.37 44.665-8.147 108.165-26.147 136.963-43.95 158.557 38.939 274.119-59.02 274.119-163.914 0-100.732-97.868-173.43-206-173.43zm5.707 277.858c-12.264 0-22.21-9.947-22.21-22.215 0-12.262 9.946-22.205 22.21-22.205 12.268 0 22.211 9.943 22.211 22.205 0 12.268-9.943 22.215-22.211 22.215zm17.463-65.649v3.994h-36.613v-3.994c0-11.307 1.65-25.809 14.775-38.418 13.127-12.61 29.53-23.027 29.53-38.78 0-17.415-12.085-26.627-27.325-26.627-25.393 0-27.051 26.335-27.677 32.134h-35.61c.949-27.461 12.555-65.871 63.5-65.871 44.15 0 64 29.568 64 57.296 0 44.135-44.58 51.801-44.58 80.266z"/></svg>