<svg xmlns="http://www.w3.org/2000/svg" width="512" height="512" viewBox="0 0 512 512"><path d="M432 177.336v157.328h-352v-157.328h352zm30-30h-412v217.328h412v-217.328zm-143.773 44.758h37.541v31.631h-37.541v-31.631zm10.04 48.089v31.631h-37.539v-31.631h37.539zm-64.038-48.089h37.539v31.631h-37.539v-31.631zm10.04 48.089v31.631h-37.539v-31.631h37.539zm-64.038-48.089h37.538v31.631h-37.538v-31.631zm10.04 48.089v31.631h-37.539v-31.631h37.539zm-64.039-48.089h37.54v31.631h-37.54v-31.631zm-53.998 0h37.539v31.631h-37.539v-31.631zm0 48.089h64.038v31.631h-64.038v-31.631zm242.492 79.723h-178.454v-31.632h178.453v31.632zm65.04-48.092h-65.04v-31.631h65.04v31.631zm0-48.089h-37.54v-31.631h37.54v31.631z"/></svg>