<svg xmlns="http://www.w3.org/2000/svg" width="512" height="512" viewBox="0 0 512 512"><path d="M381.863 343.492c5.967 1.945 8.962 8.547 6.56 14.287-2.295 5.487-8.432 8.277-14.079 6.416-44.566-14.688-74.195-35.606-89.996-63.392-3.01-5.292-1.159-12.022 4.133-15.032 5.29-3.01 12.021-1.16 15.032 4.134 13.112 23.057 38.913 40.744 78.35 53.587zm-146.27-10.483c-14.454 8.44-38.687 22.585-89.02 37.528-6.975 2.07-10.154 10.146-6.505 16.405 2.118 3.932 7.198 6.386 12.219 4.9 46.026-13.613 71.566-26.729 87.568-35.83 15.884-9.034 17.368-9.187 32.413 1.898 14.579 10.742 39.341 26.388 83.333 42.507 5.044 1.85 10.414-.42 12.727-4.274 3.892-5.995 1.212-14.084-5.526-16.559-52.509-19.286-75.364-37.527-86.735-46.605-14.737-11.765-19.688-12.108-40.474.03zm-4.488 52.658c-10.86 5.629-27.236 14.117-55.364 23.91-3.652 1.271-6.389 4.335-7.241 8.106-1.839 8.155 5.854 15.709 13.448 13.083 30.178-10.431 47.732-19.527 59.305-25.525 8.821-4.572 14.226-5.514 24.343-.027 12.808 6.941 33.003 17.882 61.181 29.271 7.966 3.22 16.091-3.867 14.584-12.252-.68-3.791-3.261-6.958-6.828-8.405-26.88-10.897-46.167-21.35-58.43-27.997-19.302-10.46-21.55-12.317-44.998-.164zm-11.822 54.541c-3.882 1.812-6.287 5.784-6.098 10.062.377 8.518 10.119 12.413 16.249 9.532 28.946-13.601 18.892-13.161 51.54 1.351 5.902 2.624 15.677-.933 16.136-9.505.234-4.392-2.271-8.47-6.294-10.25-42.503-18.807-31.111-20.072-71.533-1.19zm40.09-242.612c2.357-5.613-.28-12.075-5.895-14.433-5.613-2.357-12.074.283-14.435 5.895-18.011 42.878-63.533 75.951-123.515 90.525-5.703 1.386-9.383 6.932-8.429 12.723 1.026 6.208 7.111 10.273 13.28 8.781 59.091-14.317 115.532-47.639 138.994-103.491zm11.013 71.01c13.998-16.001 25.14-33.739 33.113-52.721 8.015-19.077 6.633-38.299-3.886-54.129-10.998-16.549-30.907-26.83-51.957-26.83-11.892 0-23.339 3.295-33.104 9.53-10.678 6.819-19.111 17.063-24.386 29.626-11.014 26.218-39.921 47.293-79.243 58.545-4.909 1.405-8.272 5.934-8.184 11.041.125 7.136 6.989 12.21 13.845 10.252 45.981-13.142 80.28-38.853 93.911-71.303 7.563-18.02 22.507-25.644 37.16-25.644 24.325 0 47.851 21.01 35.516 50.373-26.045 62-87.021 101.907-155.932 119.446-3.04.773-5.615 2.784-7.107 5.542-1.492 2.757-1.772 6.019-.754 8.984 1.828 5.319 7.413 8.331 12.863 6.949 33.786-8.565 65.038-21.98 91.484-39.38 17.847-11.739 33.546-25.29 46.661-40.281zm-99.089-106.447c5.004-8.596 9.732-16.716 17.868-24.271 19.247-17.872 45.334-26.498 71.581-23.677 24.759 2.666 46.573 15.136 59.847 34.212 18.382 26.417 13.769 52.642 9.306 78.003-3.815 21.683-7.76 44.105 4.487 63.731 9.249 14.818 26.757 26.045 54.096 34.429 5.782 1.773 11.898-1.672 13.365-7.545 1.479-5.925-1.925-11.952-7.759-13.758-21.217-6.564-34.736-14.766-40.997-24.8-7.773-12.455-4.856-29.037-1.479-48.237 4.746-26.972 10.652-60.54-12.923-94.418-16.922-24.32-44.472-40.188-75.583-43.538-32.593-3.51-65.015 7.221-88.943 29.44-10.538 9.785-16.586 20.171-21.921 29.334-8.399 14.428-15.473 26.538-39.376 34.433-3.796 1.254-6.789 4.485-7.413 9.258-1.021 7.904 6.561 14.193 14.158 11.698 32.015-10.516 41.982-27.628 51.686-44.294zm-35.08-29.013c2.066-3.131 4.207-6.367 6.599-9.82 26.371-38.06 72.983-56.727 124.695-49.931 49.149 6.458 89.503 34.576 102.804 71.63 11.792 32.848 7.13 59.382 3.384 80.704-3.235 18.412-6.029 34.314 3.748 47.075 3.969 5.18 9.625 9.186 17.389 12.188 6.479 2.506 13.564-1.812 14.351-8.673.595-5.193-2.323-10.136-7.155-12.134-3.323-1.374-5.69-2.972-7.083-4.79-3.888-5.075-1.966-16.008.466-29.85 3.976-22.627 9.421-53.616-4.347-91.969-16.062-44.744-63.433-78.517-120.684-86.04-49.847-6.546-100.733 7.698-134.877 45.607-7.277 8.192-11.756 14.118-16.097 24.177-2.831 6.562-1.725 11.297 3.032 14.562 4.684 3.213 10.667 1.966 13.775-2.736z"/></svg>