<svg xmlns="http://www.w3.org/2000/svg" width="512" height="512" viewBox="0 0 512 512"><path d="M256 50c-113.985 0-206 92.474-206 206 0 113.675 92.167 206 206 206 113.771 0 206-92.229 206-206 0-113.446-91.919-206-206-206zm162.445 125.988l-43.562 24.814c-12.966-27.857-35.693-50.588-63.436-63.571l24.812-43.557c35.406 17.548 64.61 46.71 82.186 82.314zm-87.492 154.965c-41.51 41.51-108.568 41.34-149.906 0-41.387-41.387-41.449-108.457 0-149.906 41.508-41.508 108.57-41.339 149.906 0 41.391 41.388 41.447 108.464 0 149.906zm-155.211-237.278l24.811 43.558c-27.721 12.974-50.457 35.687-63.436 63.57l-43.562-24.814c17.562-35.579 46.756-64.755 82.187-82.314zm-81.07 244.566l43.523-24.791c13.24 27.067 35.873 49.28 63.652 61.912l-24.828 43.587c-35.422-17.206-64.545-45.881-82.347-80.708zm240.309 80.708l-24.829-43.588c27.769-12.625 50.409-34.835 63.653-61.911l43.521 24.791c-17.809 34.848-46.945 63.513-82.345 80.708z"/></svg>