<svg xmlns="http://www.w3.org/2000/svg" width="512" height="512" viewBox="0 0 512 512"><path d="M321.245 50.098v44.82h-140.49c-13.808 0-25 11.193-25 25v316.984c0 13.807 11.192 25 25 25h150.49c13.807 0 25-11.193 25-25v-386.804h-35zm-100.249 366.336h-30.996v-24.5h30.996v24.5zm0-44.293h-30.996v-24.5h30.996v24.5zm50.502 44.293h-30.996v-24.5h30.996v24.5zm0-44.293h-30.996v-24.5h30.996v24.5zm50.502 44.293h-30.996v-24.5h30.996v24.5zm0-44.293h-30.996v-24.5h30.996v24.5zm0-59.293h-132v-167.5h132v167.5z"/></svg>