<svg xmlns="http://www.w3.org/2000/svg" width="512" height="512" viewBox="0 0 512 512"><path d="M441.95 222.437l-175.056 201.074c-40.637 46.677-111.677 51.59-158.355 10.953-46.676-40.642-51.59-111.681-10.954-158.354l171.951-197.505c30.2-34.688 82.993-38.344 117.684-8.14 34.69 30.2 38.343 82.994 8.14 117.687l-130.607 150.017c-19.667 22.588-54.043 24.965-76.636 5.299-22.59-19.663-24.964-54.043-5.299-76.635l101.174-116.209 29.512 25.691-101.173 116.213c-5.503 6.316-4.837 15.927 1.482 21.43 6.316 5.494 15.925 4.83 21.429-1.482l130.603-150.022c16.032-18.416 14.094-46.441-4.32-62.478-18.419-16.033-46.445-14.094-62.478 4.324l-171.946 197.506c-26.472 30.401-23.273 76.673 7.133 103.145 30.406 26.471 76.674 23.271 103.146-7.135l175.056-201.074 29.514 25.695z"/></svg>