<svg xmlns="http://www.w3.org/2000/svg" width="512" height="512" viewBox="0 0 512 512"><path d="M188 235.166v-117c0-37.555 30.445-68 68-68 37.556 0 68 30.445 68 68v117c0 37.557-30.444 68.002-68 68.002-37.555 0-68-30.445-68-68.002zm166-35v35c0 54.039-43.963 98.002-98 98.002s-98-43.963-98-98.002v-35h-40v35c0 68.434 50.071 125.381 115.5 136.158v41.309c-38.252 2.789-66.5 12.566-66.5 24.201 0 13.807 39.784 25 88.861 25 49.076 0 88.86-11.193 88.86-25 0-11.605-28.111-21.363-66.222-24.18v-41.33c65.43-10.777 115.501-67.724 115.501-136.158v-35h-40z"/></svg>