<svg xmlns="http://www.w3.org/2000/svg" width="512" height="512" viewBox="0 0 512 512"><path d="M153.415 256c0 28.558-23.15 51.708-51.707 51.708-28.558 0-51.708-23.15-51.708-51.708s23.15-51.708 51.708-51.708c28.557 0 51.707 23.15 51.707 51.708zm102.585-51.708c-28.558 0-51.708 23.15-51.708 51.708s23.15 51.708 51.708 51.708 51.708-23.15 51.708-51.708-23.15-51.708-51.708-51.708zm154.292 0c-28.557 0-51.707 23.15-51.707 51.708s23.15 51.708 51.707 51.708c28.558 0 51.708-23.15 51.708-51.708s-23.15-51.708-51.708-51.708z"/></svg>