<svg xmlns="http://www.w3.org/2000/svg" width="512" height="512" viewBox="0 0 512 512"><path d="M158.055 249.342l160.08 160.081c13.483 13.481 35.338 13.479 48.82 0 13.481-13.482 13.481-35.338 0-48.821l-160.08-160.079c-7.697-7.696-11.661-18.401-10.821-29.252 1.59-20.558-5.474-41.66-21.197-57.383-20.369-20.369-49.916-26.309-75.679-17.399l46.539 46.538c1.068 18.163-27.021 46.233-45.159 45.159l-46.538-46.54c-8.864 25.632-3.067 55.21 17.398 75.678 14.28 14.28 32.994 21.416 51.71 21.416 5.156 0 21.161-3.163 34.927 10.602zm182.806 119.337c7.856 0 14.228 6.369 14.228 14.228s-6.371 14.229-14.228 14.229c-7.857 0-14.228-6.37-14.228-14.229s6.371-14.228 14.228-14.228zm-121.417-253.35s88.328-43.474 146.982.69c33.279 25.059 28.81 47.442 43.819 62.451 13.8 13.801 30.706 2.416 30.706 2.416l21.049 21.047-67.281 67.281-21.047-21.047s9.086-12.995-1.727-23.806c-9.773-9.776-21.966-7.017-34.732 5.75-7.13 7.129-30.984 30.985-30.984 30.985l-46.994-46.995 31.347-31.348c29.022-29.022-.936-60.408-71.138-67.424zm-.891 233.056l-61.474 61.151c-12.963 12.964-33.979 12.964-46.94 0-12.962-12.96-12.962-33.978 0-46.938l61.475-61.153 46.939 46.94z"/></svg>