<svg xmlns="http://www.w3.org/2000/svg" width="512" height="512" viewBox="0 0 512 512"><path d="M330.916 335.512l5.75-3.348v29.426l-5.75 3.348v-29.426zm-9.786 35.125l5.75-3.35v-29.426l-5.85 3.406.1 29.37zm42.863-24.955l5.851-3.406v-29.426l-5.851 3.406v29.426zm76.394-176.383v197.225l-163.417 95.142-205.357-119.584v-197.226l163.715-94.522 205.059 118.965zm-235.586-66.698l159.833 94.352 32.557-18.031-161.899-93.926-30.491 17.605zm56.199 168.846l-159.743-92.467v145.86l159.743 92.846v-146.239zm47.24-43.263l-157.789-94.204-33.425 19.298 159.478 92.482 31.736-17.576zm102.219-22.317l-28.766 15.931v53.452l-.193.107v.227l-56.306 31.083v-.189l-.194.106v-53.389l-34 18.83v146.799l119.459-69.549v-143.408zm-65.777 151.057l5.756-3.352v-29.426l-5.756 3.352v29.426zm33.568-19.543l4.84-2.818.91-.535v-29.42l-5.75 3.348v29.425zm-23.943 13.939l5.75-3.348v-29.426l-5.75 3.348v29.426z"/></svg>