<svg xmlns="http://www.w3.org/2000/svg" width="512" height="512" viewBox="0 0 512 512"><path d="M256 65.353c-108.81 0-206 73.248-206 173.431 0 35.534 12.684 70.421 35.135 97.493.948 31.725-17.552 77.225-34.217 110.371 44.665-8.146 108.165-26.146 136.963-43.949 158.557 38.937 274.119-59.022 274.119-163.916 0-100.732-97.869-173.43-206-173.43zm-73.211 217.399c-6.659 5.291-15.961 7.934-27.907 7.934-10.216 0-19.244-1.959-27.087-5.882l4.378-17.374c7.888 4.014 15.913 6.02 24.077 6.02 4.696 0 8.355-.89 10.978-2.667 5.062-3.435 5.36-10.364.376-14.296-2.372-1.869-6.476-3.785-12.312-5.746-17.602-5.836-26.403-15.002-26.403-27.497 0-8.07 3.237-14.716 9.713-19.939 6.475-5.22 15.093-7.831 25.855-7.831 9.393 0 17.601 1.597 24.624 4.788l-4.789 16.826c-6.429-3.009-13.132-4.514-20.109-4.514-4.287 0-7.638.821-10.055 2.462-4.799 3.259-4.72 9.134-.581 12.62 2.029 1.71 6.896 3.933 14.603 6.668 8.526 3.01 14.763 6.737 18.708 11.184 3.943 4.446 5.917 9.977 5.917 16.587-.001 8.482-3.33 15.368-9.986 20.657zm106.43 6.429c-1.461-36.57-2.189-61.376-2.189-74.418h-.41c-2.235 9.805-9.714 34.109-22.436 72.915h-16.554c-7.616-26.768-18.878-72.915-18.878-72.915h-.273l-3.284 74.418h-19.699l5.882-92.202h28.728l16.245 63.611 19.699-63.611h29.035l4.926 92.202h-20.792zm89.227-6.037c-6.715 5.336-16.209 8.042-28.218 8.042-9.713 0-18.906-1.732-27.67-6.114l4.629-18.371c7.723 3.929 15.588 6.249 24.41 6.249 4.571 0 8.17-.868 10.696-2.581 4.837-3.281 5.014-9.809.348-13.489-2.314-1.825-6.406-3.73-12.162-5.664-17.745-5.884-26.743-15.295-26.743-27.971 0-8.19 3.33-15.03 9.899-20.328 6.536-5.27 15.341-7.942 26.168-7.942 9.42 0 17.775 1.626 24.832 4.833l.392.178-5.066 17.805c-6.502-3.042-12.998-4.715-20.43-4.715-4.165 0-7.453.799-9.773 2.375-4.518 3.067-4.435 8.544-.541 11.824 1.974 1.663 6.835 3.877 14.448 6.58 8.57 3.026 14.935 6.836 18.914 11.323 4.01 4.521 6.043 10.213 6.043 16.918 0 8.601-3.424 15.683-10.176 21.048z"/></svg>