<svg xmlns="http://www.w3.org/2000/svg" width="512" height="512" viewBox="0 0 512 512"><path d="M304 50v50h-96v-50h96zm0 412v-50h-96v50h96zm-254-158.472h50v-96h-50v96zm304-203.528h33c13.807 0 25 11.192 25 25v32.528h50v-57.528c0-27.614-22.386-50-50-50h-58v50zm58 253.528v33.472c0 13.808-11.193 25-25 25h-33v50h58c27.614 0 50-22.386 50-50v-58.472h-50zm-254 58.472h-33c-13.807 0-25-11.192-25-25v-33.472h-50v58.472c0 27.614 22.386 50 50 50h58v-50zm-58-254.472v-32.528c0-13.808 11.193-25 25-25h33v-50h-58c-27.614 0-50 22.386-50 50v57.528h50zm362 50h-50v96h50v-96z"/></svg>