<svg xmlns="http://www.w3.org/2000/svg" width="512" height="512" viewBox="0 0 512 512"><path d="M447.087 375.073l-165.687-165.686c-11.353-11.353-17.2-27.142-15.962-43.149 2.345-30.325-8.074-61.451-31.268-84.644-30.191-30.19-73.819-38.74-111.629-25.666l68.646 68.647c1.576 26.781-39.832 68.188-66.612 66.612l-68.646-68.646c-13.076 37.81-4.525 81.439 25.665 111.629 23.193 23.194 54.319 33.612 84.645 31.268 16.024-1.239 31.785 4.598 43.15 15.962l165.687 165.686c19.885 19.886 52.126 19.886 72.013 0 19.883-19.886 19.883-52.127-.002-72.013zm-38.49 53.887c-11.589 0-20.985-9.396-20.985-20.987 0-11.59 9.396-20.985 20.985-20.985 11.59 0 20.987 9.396 20.987 20.985 0 11.591-9.397 20.987-20.987 20.987z"/></svg>