<svg xmlns="http://www.w3.org/2000/svg" width="512" height="512" viewBox="0 0 512 512"><path d="M338.773 338.924h-20.772v-17.864h20.772v17.864zm0 13.295h-20.772v17.864h20.772v-17.864zm-39.468-124.636h-84.336v62.318h84.336v-62.318zm39.468 62.17h-20.772v17.863h20.772v-17.863zm0-31.011h-20.772v17.864h20.772v-17.864zm0-31.159h-20.772v17.864h20.772v-17.864zm-142.501 0h-20.772v17.864h20.772v-17.864zm0 124.636h-20.772v17.864h20.772v-17.864zm0-31.159h-20.772v17.864h20.772v-17.864zm103.033-13.295h-84.336v62.318h84.336v-62.318zm-103.033-18.012h-20.772v17.863h20.772v-17.863zm0-31.011h-20.772v17.864h20.772v-17.864zm101.546-168.742v85.75h85.864v246.25h-255.365v-332h169.501m25-40h-234.501v412h335.365v-311.25l-100.864-100.75z"/></svg>