<?xml version="1.0" encoding="utf-8"?>

<!-- License Agreement at http://iconmonstr.com/license/ -->

<!DOCTYPE svg PUBLIC "-//W3C//DTD SVG 1.1//EN" "http://www.w3.org/Graphics/SVG/1.1/DTD/svg11.dtd">
<svg version="1.1" xmlns="http://www.w3.org/2000/svg" xmlns:xlink="http://www.w3.org/1999/xlink" x="0px" y="0px"
	 width="512px" height="512px" viewBox="0 0 512 512" enable-background="new 0 0 512 512" xml:space="preserve">
<path id="bell-6-icon" d="M308.517,435.887c-14.418,24.971-46.35,33.527-71.321,19.109s-33.527-46.348-19.11-71.319L308.517,435.887
	z M411.881,416.032l-18.975,32.866L76.647,266.306l18.976-32.865c91.482,19.662,130.307-145.533,228.581-145.285
	c13.561,0.033,26.116-7.193,32.876-18.95c0.012-0.02,0.022-0.039,0.034-0.058c10.57-18.311,33.982-24.583,52.293-14.012
	c18.309,10.571,24.582,33.982,14.012,52.292c-0.011,0.02-0.022,0.039-0.033,0.058c-6.793,11.72-6.773,26.234,0.026,37.949
	C472.765,230.417,349.113,346.634,411.881,416.032z M338.022,125.299c-71.169-1.549-128.027,134.076-176.778,140.728l33.739,19.479
	C247.269,256.481,286.54,143.612,338.022,125.299z M403.717,96.054c4.281-7.417,1.731-16.934-5.687-21.217
	c-7.415-4.28-16.934-1.731-21.216,5.686c-4.281,7.416-1.731,16.934,5.686,21.217C389.917,106.021,399.435,103.47,403.717,96.054z"/>
</svg>
