<?xml version="1.0" encoding="utf-8"?>

<!-- The icon can be used freely in both personal and commercial projects with no attribution required, but always appreciated. 
You may NOT sub-license, resell, rent, redistribute or otherwise transfer the icon without express written permission from iconmonstr.com -->

<!DOCTYPE svg PUBLIC "-//W3C//DTD SVG 1.1//EN" "http://www.w3.org/Graphics/SVG/1.1/DTD/svg11.dtd">
<svg version="1.1" xmlns="http://www.w3.org/2000/svg" xmlns:xlink="http://www.w3.org/1999/xlink" x="0px" y="0px"
	 width="512px" height="512px" viewBox="0 0 512 512" enable-background="new 0 0 512 512" xml:space="preserve">
<path id="photo-camera-icon" d="M199,142.75c-12.979,0-23.5-10.521-23.5-23.5H95c0,12.979-10.521,23.5-23.5,23.5H50v250h412v-250
	H199z M175.5,216.75H95v-35h80.5V216.75z M317,355.25c-47.696,0-86.5-38.804-86.5-86.5s38.804-84.5,86.5-84.5s86.5,36.804,86.5,84.5
	S364.696,355.25,317,355.25z M363.5,268.75c0,25.641-20.859,46.5-46.5,46.5s-46.5-20.859-46.5-46.5c0-25.64,20.859-46.5,46.5-46.5
	S363.5,243.11,363.5,268.75z"/>
</svg>
