<?xml version="1.0" encoding="utf-8"?>


<!-- The icon can be used freely in both personal and commercial projects with no attribution required, but always appreciated. 
You may NOT sub-license, resell, rent, redistribute or otherwise transfer the icon without express written permission from iconmonstr.com -->


<!DOCTYPE svg PUBLIC "-//W3C//DTD SVG 1.1//EN" "http://www.w3.org/Graphics/SVG/1.1/DTD/svg11.dtd">

<svg version="1.1" xmlns="http://www.w3.org/2000/svg" xmlns:xlink="http://www.w3.org/1999/xlink" x="0px" y="0px"

	 width="512px" height="512px" viewBox="0 0 512 512" enable-background="new 0 0 512 512" xml:space="preserve">

<path id="dashboard-icon" d="M256,50C142.229,50,50,142.229,50,256s92.229,206,206,206s206-92.229,206-206S369.771,50,256,50z

	 M243,86.737c4.386-0.334,8.75-0.503,13-0.503s8.614,0.169,13,0.503v53.474c-4.315-0.479-8.678-0.722-13-0.722

	c-4.322,0-8.685,0.243-13,0.722V86.737z M144.039,223.682l-49.428-20.48c2.687-8.215,6.033-16.277,9.965-24.015l49.419,20.476

	C149.787,207.27,146.446,215.33,144.039,223.682z M164.94,183.324l-37.816-37.816c5.641-6.572,11.812-12.744,18.384-18.384

	l37.816,37.816C176.535,170.365,170.365,176.535,164.94,183.324z M178.56,104.899c7.713-3.96,15.761-7.339,23.974-10.063

	l20.684,49.339c-8.337,2.44-16.383,5.816-23.975,10.059L178.56,104.899z M256,350.551c-23.315,0-42.217-18.901-42.217-42.217

	c0-15.912,8.807-29.763,21.809-36.958L256,175.722l20.409,95.654c13.002,7.195,21.809,21.046,21.809,36.958

	C298.217,331.649,279.315,350.551,256,350.551z M288.336,144.044l20.488-49.424c8.212,2.688,16.273,6.035,24.012,9.969

	l-20.483,49.416C304.745,149.794,296.687,146.452,288.336,144.044z M328.675,164.939l37.816-37.815

	c6.571,5.641,12.744,11.813,18.385,18.384l-37.816,37.816C341.634,176.535,335.464,170.365,328.675,164.939z M367.448,221.931

	c-2.533-8.294-6.004-16.3-10.341-23.854l49.102-21.251c4.036,7.646,7.505,15.656,10.331,23.859L367.448,221.931z"/>

</svg>

